# xmcd
#
# Track frame offsets: 
#        150
#        19723
#        42946
#        76090
#        99752
#        125710
#        147717
#        162310
#        195660
#        218210
#        236986
#        260457
#
# Disc length: 3675 seconds
#
# Revision: 0
# Processed by: cddbd v1.5.2PL0 Copyright (c) Steve Scherf et al.
# Submitted via: ExactAudioCopy v0.99pb5
#
DISCID=a70e590c
DTITLE=Danny Brooks - Live at the Palais Royale
DYEAR=2009
DGENRE=Blues
TTITLE0=Carolina
TTITLE1=Hold Your Head Up
TTITLE2=Down on My Knees
TTITLE3=Somebody on Your Bond
TTITLE4=Other Side of the Cloud
TTITLE5=Righteous Highway
TTITLE6=Carry Me
TTITLE7=Still Got This Thing for You
TTITLE8=No Turnin' Back
TTITLE9=Hold On
TTITLE10=Homestead Boogie
TTITLE11=Holy Ghost Highway
EXTD=
EXTT0=
EXTT1=
EXTT2=
EXTT3=
EXTT4=
EXTT5=
EXTT6=
EXTT7=
EXTT8=
EXTT9=
EXTT10=
EXTT11=
PLAYORDER=
